<svg width="20" height="20" viewBox="0 0 20 20" fill="none" xmlns="http://www.w3.org/2000/svg">
<path d="M14.6667 10.7779H10.7778V14.6668C10.7778 15.0946 10.4278 15.4446 9.99999 15.4446C9.57221 15.4446 9.22221 15.0946 9.22221 14.6668V10.7779H5.33332C4.90554 10.7779 4.55554 10.4279 4.55554 10.0001C4.55554 9.57233 4.90554 9.22233 5.33332 9.22233H9.22221V5.33344C9.22221 4.90566 9.57221 4.55566 9.99999 4.55566C10.4278 4.55566 10.7778 4.90566 10.7778 5.33344V9.22233H14.6667C15.0944 9.22233 15.4444 9.57233 15.4444 10.0001C15.4444 10.4279 15.0944 10.7779 14.6667 10.7779Z" fill="#D9D9D9"/>
<path d="M14.6667 10.7779H10.7778V14.6668C10.7778 15.0946 10.4278 15.4446 9.99999 15.4446C9.57221 15.4446 9.22221 15.0946 9.22221 14.6668V10.7779H5.33332C4.90554 10.7779 4.55554 10.4279 4.55554 10.0001C4.55554 9.57233 4.90554 9.22233 5.33332 9.22233H9.22221V5.33344C9.22221 4.90566 9.57221 4.55566 9.99999 4.55566C10.4278 4.55566 10.7778 4.90566 10.7778 5.33344V9.22233H14.6667C15.0944 9.22233 15.4444 9.57233 15.4444 10.0001C15.4444 10.4279 15.0944 10.7779 14.6667 10.7779Z" fill="#EB266A"/>
</svg>
