<svg width="54" height="53" viewBox="0 0 54 53" fill="none" xmlns="http://www.w3.org/2000/svg">
<path d="M35.7815 3.50626C36.8215 4.53597 36.7655 6.20197 36.1495 7.52739C35.506 8.91418 35.3069 10.4628 35.5789 11.965C35.8509 13.4672 36.5809 14.8509 37.6709 15.93C38.7608 17.0091 40.1583 17.7319 41.6755 18.0012C43.1927 18.2705 44.7568 18.0734 46.1575 17.4363C47.4962 16.829 49.1788 16.771 50.2188 17.8007L51.7815 19.3478C52.2814 19.843 52.5623 20.5144 52.5623 21.2145C52.5623 21.9146 52.2814 22.5861 51.7815 23.0812L23.5522 51.031C23.0521 51.526 22.3739 51.8041 21.6668 51.8041C20.9597 51.8041 20.2816 51.526 19.7815 51.031L18.2188 49.4838C17.1788 48.4541 17.2348 46.7881 17.8508 45.4627C18.4943 44.0759 18.6934 42.5273 18.4214 41.0251C18.1494 39.5229 17.4194 38.1392 16.3295 37.0601C15.2395 35.981 13.842 35.2581 12.3248 34.9889C10.8076 34.7196 9.24348 34.9167 7.84282 35.5538C6.50416 36.1611 4.82149 36.2191 3.78149 35.1894L2.21882 33.6422C1.7189 33.1471 1.43806 32.4757 1.43806 31.7756C1.43806 31.0755 1.7189 30.404 2.21882 29.9089L30.4482 1.95907C30.9482 1.4641 31.6264 1.18604 32.3335 1.18604C33.0406 1.18604 33.7188 1.4641 34.2188 1.95907L35.7815 3.50626Z" stroke="white" stroke-width="2" stroke-linecap="round" stroke-linejoin="round"/>
</svg>
