<svg width="12" height="8" viewBox="0 0 12 8" fill="none" xmlns="http://www.w3.org/2000/svg">
<path d="M6.65528 7.71429C6.36404 8.09524 5.63596 8.09524 5.34472 7.71429L0.102502 0.857143C-0.188733 0.476191 0.17531 4.4599e-07 0.757779 4.94486e-07L11.2422 1.36742e-06C11.8247 1.41592e-06 12.1887 0.476192 11.8975 0.857144L6.65528 7.71429Z" fill="#D9D9D9"/>
<path d="M6.65528 7.71429C6.36404 8.09524 5.63596 8.09524 5.34472 7.71429L0.102502 0.857143C-0.188733 0.476191 0.17531 4.4599e-07 0.757779 4.94486e-07L11.2422 1.36742e-06C11.8247 1.41592e-06 12.1887 0.476192 11.8975 0.857144L6.65528 7.71429Z" fill="#EB266A"/>
</svg>
