<svg width="16" height="16" viewBox="0 0 16 16" fill="none" xmlns="http://www.w3.org/2000/svg">
<path d="M2.57558 6.53375C3.04621 6.32688 3.58746 6.57469 3.77871 7.08437L4.87496 9.75H5.22714V2.5C5.22714 1.95 5.64277 1.5 6.15058 1.5C6.65871 1.5 7.07402 1.95 7.07402 2.5V7.24219L7.53589 7.25V1C7.53589 0.45 7.95152 0 8.45933 0C8.96871 0 9.38277 0.45 9.38277 1V7.24219L9.84371 7.25V2C9.84371 1.45 10.2593 1 10.7671 1C11.2753 1 11.6906 1.45 11.6906 2V7.74219L12.1525 7.75V4C12.1525 3.45 12.5681 3 13.0759 3C13.5843 3 14 3.45 14 4V10.75C14 13.1187 12.8396 16 8.71871 16C7.44371 16 6.23683 15.7812 5.57308 15.3438C5.15685 15.0694 4.79878 14.7157 4.51933 14.3028C4.31051 13.9947 4.14244 13.6609 4.01933 13.3097L2.06746 7.83656C1.87652 7.32688 2.10496 6.74094 2.57558 6.53375Z" fill="#D9D9D9"/>
<path d="M2.57558 6.53375C3.04621 6.32688 3.58746 6.57469 3.77871 7.08437L4.87496 9.75H5.22714V2.5C5.22714 1.95 5.64277 1.5 6.15058 1.5C6.65871 1.5 7.07402 1.95 7.07402 2.5V7.24219L7.53589 7.25V1C7.53589 0.45 7.95152 0 8.45933 0C8.96871 0 9.38277 0.45 9.38277 1V7.24219L9.84371 7.25V2C9.84371 1.45 10.2593 1 10.7671 1C11.2753 1 11.6906 1.45 11.6906 2V7.74219L12.1525 7.75V4C12.1525 3.45 12.5681 3 13.0759 3C13.5843 3 14 3.45 14 4V10.75C14 13.1187 12.8396 16 8.71871 16C7.44371 16 6.23683 15.7812 5.57308 15.3438C5.15685 15.0694 4.79878 14.7157 4.51933 14.3028C4.31051 13.9947 4.14244 13.6609 4.01933 13.3097L2.06746 7.83656C1.87652 7.32688 2.10496 6.74094 2.57558 6.53375Z" fill="#EB266A"/>
</svg>
