<svg width="24" height="24" viewBox="0 0 24 24" fill="none" xmlns="http://www.w3.org/2000/svg">
<path d="M15.293 3.29297C15.683 3.68297 15.662 4.31397 15.431 4.81597C15.1897 5.34122 15.1151 5.92776 15.2171 6.49671C15.3191 7.06566 15.5928 7.58974 16.0015 7.99846C16.4103 8.40718 16.9343 8.68095 17.5033 8.78294C18.0722 8.88493 18.6588 8.81026 19.184 8.56897C19.686 8.33897 20.317 8.31697 20.707 8.70697L21.293 9.29297C21.4805 9.4805 21.5858 9.73481 21.5858 9.99997C21.5858 10.2651 21.4805 10.5194 21.293 10.707L10.707 21.293C10.5195 21.4804 10.2652 21.5858 10 21.5858C9.73486 21.5858 9.48056 21.4804 9.29303 21.293L8.70703 20.707C8.31703 20.317 8.33803 19.686 8.56903 19.184C8.81032 18.6587 8.88499 18.0722 8.783 17.5032C8.68101 16.9343 8.40724 16.4102 7.99852 16.0015C7.58979 15.5928 7.06572 15.319 6.49677 15.217C5.92782 15.115 5.34128 15.1897 4.81603 15.431C4.31403 15.661 3.68303 15.683 3.29303 15.293L2.70703 14.707C2.51956 14.5194 2.41424 14.2651 2.41424 14C2.41424 13.7348 2.51956 13.4805 2.70703 13.293L13.293 2.70697C13.4806 2.5195 13.7349 2.41418 14 2.41418C14.2652 2.41418 14.5195 2.5195 14.707 2.70697L15.293 3.29297Z" stroke="white" stroke-width="2" stroke-linecap="round" stroke-linejoin="round"/>
</svg>
