<svg width="47" height="12" viewBox="0 0 47 12" fill="none" xmlns="http://www.w3.org/2000/svg">
<g clip-path="url(#clip0_64_2539)">
<mask id="mask0_64_2539" style="mask-type:luminance" maskUnits="userSpaceOnUse" x="0" y="0" width="47" height="12">
<path d="M46.9615 0H0.5V11.7941H46.9615V0Z" fill="white"/>
</mask>
<g mask="url(#mask0_64_2539)">
<path d="M13.3111 10.9681V7.63345C13.3111 6.84635 13.0062 6.39798 12.3416 6.39798C11.6556 6.39798 11.3289 6.80253 11.3289 7.55693V10.9681H9.521V2.87744H11.3289V5.47964C11.5901 4.9877 12.1783 4.6925 12.8973 4.6925C14.2804 4.6925 15.119 5.56705 15.119 7.15238V10.9681H13.3111Z" fill="white"/>
<path d="M20.2584 5.78404C20.2584 5.18127 19.7716 4.69263 19.1711 4.69263C18.5707 4.69263 18.0839 5.18127 18.0839 5.78404C18.0839 6.38681 18.5707 6.87555 19.1711 6.87555C19.7716 6.87555 20.2584 6.38681 20.2584 5.78404Z" fill="white"/>
<path d="M16.0885 4.89355H17.7875V10.9613H16.0885V4.89355Z" fill="white"/>
<path d="M35.0203 10.9643V7.69537C35.0203 6.74404 34.7157 6.3942 34.0945 6.3942C33.4086 6.3942 33.0926 6.80983 33.0926 7.60777V10.9643H31.2849V7.61884C31.2849 6.83149 31.0015 6.3942 30.3808 6.3942C29.6729 6.3942 29.357 6.8534 29.357 7.69537V10.9643H27.549V4.89647H29.2373V5.5414H29.2589C29.5748 4.97287 30.1521 4.68872 30.9253 4.68872C31.7095 4.68872 32.2868 5.0822 32.668 5.77106C33.1037 5.0822 33.7572 4.68872 34.5849 4.68872C35.9354 4.68872 36.8283 5.51964 36.8283 7.21429V10.9643H35.0203Z" fill="#FFF7F7"/>
<path d="M39.6093 4.89355H37.8013V10.9613H39.6093V4.89355Z" fill="#FFF7F7"/>
<path d="M45.1536 10.9643V10.3084H45.1317C44.8705 10.8442 44.1517 11.1721 43.3567 11.1721C41.5705 11.1721 40.329 9.76161 40.329 7.92487C40.329 6.1318 41.625 4.68872 43.3567 4.68872C44.097 4.68872 44.7834 4.98392 45.1317 5.5414H45.1536V4.89647H46.9616V10.9643H45.1536ZM45.1536 7.92487C45.1536 7.07207 44.4674 6.38337 43.6179 6.38337C42.7902 6.38337 42.1367 7.07207 42.1367 7.94678C42.1367 8.78854 42.8013 9.47746 43.6401 9.47746C44.4893 9.47746 45.1536 8.79961 45.1536 7.92487Z" fill="#FFF7F7"/>
<path d="M39.7926 3.39222C39.7926 2.78944 39.3059 2.30078 38.7055 2.30078C38.1049 2.30078 37.6182 2.78944 37.6182 3.39222C37.6182 3.99499 38.1049 4.48363 38.7055 4.48363C39.3059 4.48363 39.7926 3.99499 39.7926 3.39222Z" fill="#FFF7F7"/>
<path d="M23.6189 4.71143C21.8444 4.71143 20.406 6.15543 20.406 7.93678C20.406 9.71804 21.8444 11.1621 23.6189 11.1621C25.3934 11.1621 26.8319 9.71804 26.8319 7.93678C26.8319 6.15543 25.3934 4.71143 23.6189 4.71143ZM23.6189 9.46736C22.7767 9.46736 22.0941 8.78207 22.0941 7.93678C22.0941 7.09136 22.7767 6.40607 23.6189 6.40607C24.461 6.40607 25.1437 7.09136 25.1437 7.93678C25.1437 8.78207 24.461 9.46736 23.6189 9.46736Z" fill="white"/>
<path d="M6.53163 7.89986C6.17837 8.5694 5.47828 9.02608 4.67092 9.02608C3.5085 9.02608 2.56618 8.08005 2.56618 6.91306C2.56618 5.74611 3.5085 4.80008 4.67092 4.80008C5.47828 4.80008 6.17837 5.25675 6.53163 5.92629H8.72274C8.28314 4.08676 6.63837 2.71777 4.67092 2.71777C2.36736 2.71777 0.5 4.59248 0.5 6.90488C0.5 9.2174 2.36736 11.0919 4.67092 11.0919C6.6324 11.0919 8.27311 9.73106 8.71859 7.89986H6.53163Z" fill="white"/>
<path d="M7.96857 4.35166C8.43897 3.96646 8.7394 3.37988 8.7394 2.72294C8.7394 1.56264 7.80245 0.62207 6.64666 0.62207C5.49079 0.62207 4.55383 1.56264 4.55383 2.72294V2.72453C4.59269 2.72347 4.63159 2.72287 4.67069 2.72287C6.01405 2.72287 7.20697 3.36117 7.96857 4.35166Z" fill="#CC91F0"/>
<path d="M6.64807 4.82604C7.14948 4.82595 7.6097 4.64899 7.97007 4.35379C7.20862 3.36336 6.01573 2.72517 4.67228 2.72534C4.6332 2.72529 4.59431 2.72589 4.55554 2.72698C4.55622 3.88653 5.4928 4.82613 6.64807 4.82604Z" fill="#CC66B8"/>
</g>
</g>
<defs>
<clipPath id="clip0_64_2539">
<rect width="46.4615" height="12" fill="white" transform="translate(0.5)"/>
</clipPath>
</defs>
</svg>
