<svg width="205" height="42" viewBox="0 0 205 42" fill="none" xmlns="http://www.w3.org/2000/svg">
<path d="M47.3654 14.3506L48.0254 10.1137H64.2981L63.638 14.3506H57.7546L55.0569 31.5882H50.5797L53.2775 14.3506H47.3654ZM67.9531 14.7569C66.7477 14.7569 65.8867 13.8573 65.8867 12.6675C65.8867 11.1584 67.2356 9.79452 68.7567 9.79452C69.962 9.79452 70.823 10.6941 70.823 11.8839C70.823 13.3639 69.4454 14.7569 67.9531 14.7569ZM63.2176 31.5882L65.4849 17.0784H69.7611L67.4939 31.5882H63.2176ZM71.0992 25.4361C71.0992 20.4447 74.6292 16.6722 79.2786 16.6722C83.3826 16.6722 85.8221 18.9647 85.8221 22.7663H81.5171C81.431 21.3153 80.5413 20.5028 79.0203 20.5028C76.9826 20.5028 75.4615 22.4761 75.4615 25.1169C75.4615 27.0322 76.3799 28.1059 78.0445 28.1059C79.3647 28.1059 80.4552 27.2643 80.9718 25.8133H85.3342C84.4732 29.4988 81.4884 31.9365 77.8149 31.9365C73.5673 31.9365 71.0992 29.5569 71.0992 25.4361ZM91.1199 31.5882H86.8436L90.2589 9.70746H94.5351L92.5835 22.2729L97.9217 17.0784H103.346L96.9746 23.2016L100.619 31.5882H95.9988L93.6454 26.0745L91.6939 27.9318L91.1199 31.5882ZM108.895 31.9365C104.648 31.9365 102.18 29.5569 102.18 25.4361C102.18 20.4447 105.71 16.6722 110.359 16.6722C114.808 16.6722 117.276 19.6612 116.558 24.3043L116.386 25.4361L106.255 25.4941C106.37 27.4384 107.288 28.3961 109.125 28.3961C110.474 28.3961 111.507 27.7867 112.052 26.7129H116.242C115.267 29.818 112.282 31.9365 108.895 31.9365ZM110.101 20.1835C108.58 20.1835 107.317 21.2282 106.686 22.7953H112.54C112.799 21.1992 111.851 20.1835 110.101 20.1835ZM123.492 31.5882H119.216L120.909 20.6769H118.24L118.814 17.0784H121.483L122.172 12.6094H126.448L125.76 17.0784H128.429L127.855 20.6769H125.186L123.492 31.5882ZM133.204 31.5882H128.726L132.084 10.1137H136.561L135.213 18.6745H143.363L144.712 10.1137H149.189L145.831 31.5882H141.354L142.732 22.8824H134.581L133.204 31.5882ZM154.181 31.9655C151.569 31.9655 149.79 30.3404 149.79 27.9318C149.79 24.9137 151.885 23.1145 155.702 22.7953L159.72 22.4471L159.749 22.1859C159.921 20.7349 159.089 19.9514 157.482 19.9514C155.846 19.9514 154.927 20.6479 154.726 22.0408H150.995C151.512 18.5875 154.009 16.6431 157.941 16.6431C162.16 16.6431 164.427 19.1388 163.795 23.0855L162.447 31.5882H158.687L158.716 29.6439C158.056 31.0369 156.219 31.9655 154.181 31.9655ZM155.903 28.7443C157.682 28.7443 158.974 27.7286 159.204 26.1035L159.318 25.32L157.022 25.5231C154.899 25.6973 154.124 26.3067 154.124 27.4094C154.124 28.251 154.755 28.7443 155.903 28.7443ZM168.051 31.5882L165.784 17.0784H170.06L170.634 22.0118C170.778 23.2306 170.892 24.7686 170.95 26.0745C171.352 24.9718 171.983 23.4047 172.586 22.0118L174.738 17.0784H179.129L179.703 22.0118C179.761 22.5631 179.961 24.9428 180.019 26.0745C180.535 24.7396 181.282 22.8533 181.655 22.0118L183.807 17.0784H188.514L181.339 31.5882H177.436L176.718 26.771C176.489 25.1459 176.231 22.5341 176.202 21.8377C175.944 22.5341 174.939 25.0588 174.193 26.858L172.27 31.5882H168.051ZM192.461 31.5882H188.185L191.6 9.70746H195.876L193.925 22.2729L199.263 17.0784H204.687L198.316 23.2016L201.961 31.5882H197.34L194.986 26.0745L193.035 27.9318L192.461 31.5882Z" fill="#4F49A2"/>
<path d="M40.5589 20.6078C40.5589 9.77873 31.877 1 21.1673 1C10.4576 1 1.77563 9.77873 1.77563 20.6078C1.77563 31.437 10.4576 40.2157 21.1673 40.2157C31.877 40.2157 40.5589 31.437 40.5589 20.6078Z" fill="white"/>
<mask id="mask0_128_1677" style="mask-type:alpha" maskUnits="userSpaceOnUse" x="1" y="0" width="40" height="41">
<path d="M21.1675 40.1176C31.8236 40.1176 40.4622 31.3828 40.4622 20.6078C40.4622 9.83286 31.8236 1.09802 21.1675 1.09802C10.5113 1.09802 1.8728 9.83286 1.8728 20.6078C1.8728 31.3828 10.5113 40.1176 21.1675 40.1176Z" fill="#D9D9D9" stroke="black" stroke-width="0.5"/>
</mask>
<g mask="url(#mask0_128_1677)">
<path fill-rule="evenodd" clip-rule="evenodd" d="M-10.5121 23.487C-1.47805 18.4228 3.54668 16.4945 12.4315 14.6538L8.78356 13.1978C21.1673 11.8046 30.1911 11.5135 31.2471 15.5274C37.391 15.8186 37.7541 19.9257 37.775 24.2636C31.2471 19.1818 10.9915 27.918 6.57559 37.1395C6.38357 33.548 8.30354 26.5591 13.9674 23.8411C4.55963 21.9968 -0.432278 21.8998 -10.5121 23.487ZM24.2392 14.6197L25.4872 15.8815H29.8072L24.2392 14.6197Z" fill="url(#paint0_linear_128_1677)"/>
<path d="M28.5592 21.7056C31.0551 21.7056 36.527 22.5792 37.871 24.3265C30.9591 19.9584 13.1034 26.462 6.57556 37.0425C8.30351 28.7916 15.1194 21.7056 28.5592 21.7056Z" fill="#FFEFF5"/>
</g>
<path d="M39.9772 20.6079C39.9772 10.1036 31.5557 1.58826 21.1673 1.58826C10.7789 1.58826 2.35742 10.1036 2.35742 20.6079C2.35742 31.1121 10.7789 39.6275 21.1673 39.6275C31.5557 39.6275 39.9772 31.1121 39.9772 20.6079Z" stroke="url(#paint1_linear_128_1677)" stroke-width="3"/>
<defs>
<linearGradient id="paint0_linear_128_1677" x1="-10.5121" y1="24.6997" x2="37.775" y2="24.6997" gradientUnits="userSpaceOnUse">
<stop stop-color="#EC008C"/>
<stop offset="1" stop-color="#FC6767"/>
</linearGradient>
<linearGradient id="paint1_linear_128_1677" x1="2.35742" y1="20.6079" x2="39.9772" y2="20.6079" gradientUnits="userSpaceOnUse">
<stop stop-color="#EC008C"/>
<stop offset="1" stop-color="#FC6767"/>
</linearGradient>
</defs>
</svg>
